<svg width="50" height="60" viewBox="0 0 50 60" fill="none" xmlns="http://www.w3.org/2000/svg">
<path d="M25 -0.000189003C21.8086 -0.149871 18.621 0.368455 15.6414 1.52161C12.6618 2.67476 9.95586 4.43734 7.69669 6.69651C5.43752 8.95568 3.67495 11.6617 2.52179 14.6413C1.36864 17.6208 0.850312 20.8084 0.999994 23.9998C0.999994 31.5598 6.99999 38.9998 9.99999 41.9998C13 44.9998 25 59.9998 25 59.9998C25 59.9998 37 44.9998 40 41.9998C43 38.9998 49 31.5598 49 23.9998C49.1497 20.8084 48.6313 17.6208 47.4782 14.6413C46.325 11.6617 44.5625 8.95568 42.3033 6.69651C40.0441 4.43734 37.3381 2.67476 34.3586 1.52161C31.379 0.368455 28.1914 -0.149871 25 -0.000189003V-0.000189003ZM25 33.7498C23.0716 33.7498 21.1866 33.178 19.5832 32.1066C17.9798 31.0353 16.7301 29.5126 15.9922 27.731C15.2542 25.9494 15.0611 23.989 15.4373 22.0977C15.8135 20.2064 16.7421 18.4691 18.1057 17.1055C19.4693 15.742 21.2065 14.8134 23.0979 14.4372C24.9892 14.0609 26.9496 14.254 28.7312 14.992C30.5127 15.7299 32.0355 16.9796 33.1068 18.583C34.1782 20.1864 34.75 22.0714 34.75 23.9998C34.75 25.2802 34.4978 26.5481 34.0078 27.731C33.5178 28.9139 32.7997 29.9887 31.8943 30.8941C30.9889 31.7995 29.9141 32.5177 28.7312 33.0076C27.5482 33.4976 26.2804 33.7498 25 33.7498V33.7498Z" fill="#00A2DF"/>
</svg>
